<svg width="32" height="32" viewBox="0 0 32 32" fill="none" xmlns="http://www.w3.org/2000/svg">
<path d="M0 8C0 3.58172 3.58172 0 8 0H24C28.4183 0 32 3.58172 32 8V24C32 28.4183 28.4183 32 24 32H8C3.58172 32 0 28.4183 0 24V8Z" fill="black"/>
<path d="M4.09309 7.03895C3.83135 6.5792 4.15266 6 4.66944 6H10.7207C10.9587 6 11.1787 6.13049 11.2984 6.34263L14.7431 12.4463C14.8692 12.6698 14.8635 12.9473 14.7284 13.1651L14.1968 14.0222C13.9284 14.4549 13.3123 14.4438 13.0586 14.0018L10.0458 8.75207C9.92551 8.54239 9.70686 8.41379 9.47068 8.41379H8.6862C8.16807 8.41379 7.84694 8.99571 8.11139 9.45543L13.0283 18.0031C13.2892 18.4567 13.927 18.4525 14.1823 17.9954L20.688 6.34536C20.8073 6.13168 21.0281 6 21.2672 6H27.3306C27.8442 6 28.1659 6.57289 27.9105 7.03265L17.5642 25.6533C17.4451 25.8678 17.2238 26 16.9843 26H15.849C15.3359 26 15.0141 25.4283 15.2684 24.9685L23.9031 9.35909C24.1574 8.89933 23.8356 8.32759 23.3225 8.32759H22.6043C22.3651 8.32759 22.1442 8.45941 22.0249 8.67328L14.1851 22.7305C13.9293 23.189 13.289 23.192 13.0293 22.7358L4.09309 7.03895Z" fill="white"/>
</svg>
